<mxfile host="app.diagrams.net" agent="Mozilla/5.0 (Windows NT 10.0; Win64; x64) AppleWebKit/537.36 (KHTML, like Gecko) Chrome/128.0.0.0 Safari/537.36" version="24.7.8" pages="2">
  <diagram name="sd" id="nq3hfyptlFCVr2CrW04x">
    <mxGraphModel dx="882" dy="578" grid="1" gridSize="10" guides="1" tooltips="1" connect="1" arrows="1" fold="1" page="1" pageScale="1" pageWidth="1169" pageHeight="827" math="0" shadow="0">
      <root>
        <mxCell id="nQaSH5ZJLGZen89Ir8Ug-0" />
        <mxCell id="nQaSH5ZJLGZen89Ir8Ug-1" parent="nQaSH5ZJLGZen89Ir8Ug-0" />
        <mxCell id="DQY4unRg5TGk52qzZA9S-4" style="edgeStyle=orthogonalEdgeStyle;rounded=0;orthogonalLoop=1;jettySize=auto;html=1;exitX=0.5;exitY=1;exitDx=0;exitDy=0;endArrow=none;endFill=0;" parent="nQaSH5ZJLGZen89Ir8Ug-1" source="nQaSH5ZJLGZen89Ir8Ug-2" edge="1">
          <mxGeometry relative="1" as="geometry">
            <mxPoint x="500" y="160" as="targetPoint" />
          </mxGeometry>
        </mxCell>
        <mxCell id="nQaSH5ZJLGZen89Ir8Ug-2" value="Tip&amp;nbsp;&lt;span style=&quot;background-color: initial;&quot;&gt;Calculator&lt;/span&gt;" style="rounded=0;whiteSpace=wrap;html=1;" parent="nQaSH5ZJLGZen89Ir8Ug-1" vertex="1">
          <mxGeometry x="440" y="80" width="120" height="60" as="geometry" />
        </mxCell>
        <mxCell id="nQaSH5ZJLGZen89Ir8Ug-4" style="edgeStyle=orthogonalEdgeStyle;rounded=0;orthogonalLoop=1;jettySize=auto;html=1;exitX=0.5;exitY=0;exitDx=0;exitDy=0;endArrow=none;endFill=0;" parent="nQaSH5ZJLGZen89Ir8Ug-1" source="nQaSH5ZJLGZen89Ir8Ug-5" edge="1">
          <mxGeometry relative="1" as="geometry">
            <mxPoint x="180.31034482758628" y="160" as="targetPoint" />
          </mxGeometry>
        </mxCell>
        <mxCell id="nQaSH5ZJLGZen89Ir8Ug-5" value="Initialise variables" style="rounded=0;whiteSpace=wrap;html=1;" parent="nQaSH5ZJLGZen89Ir8Ug-1" vertex="1">
          <mxGeometry x="120" y="200" width="120" height="60" as="geometry" />
        </mxCell>
        <mxCell id="nQaSH5ZJLGZen89Ir8Ug-44" style="edgeStyle=orthogonalEdgeStyle;rounded=0;orthogonalLoop=1;jettySize=auto;html=1;exitX=0.5;exitY=0;exitDx=0;exitDy=0;endArrow=none;endFill=0;entryX=0.5;entryY=1;entryDx=0;entryDy=0;" parent="nQaSH5ZJLGZen89Ir8Ug-1" source="nQaSH5ZJLGZen89Ir8Ug-6" target="nQaSH5ZJLGZen89Ir8Ug-38" edge="1">
          <mxGeometry relative="1" as="geometry" />
        </mxCell>
        <mxCell id="fUy0ndqq2JAWgpP197KR-2" style="edgeStyle=orthogonalEdgeStyle;rounded=0;orthogonalLoop=1;jettySize=auto;html=1;exitX=0.5;exitY=1;exitDx=0;exitDy=0;entryX=0.5;entryY=0;entryDx=0;entryDy=0;endArrow=none;endFill=0;" parent="nQaSH5ZJLGZen89Ir8Ug-1" source="nQaSH5ZJLGZen89Ir8Ug-6" target="nQaSH5ZJLGZen89Ir8Ug-39" edge="1">
          <mxGeometry relative="1" as="geometry">
            <mxPoint x="340" y="400" as="targetPoint" />
          </mxGeometry>
        </mxCell>
        <mxCell id="nQaSH5ZJLGZen89Ir8Ug-6" value="Get valid amount" style="rounded=0;whiteSpace=wrap;html=1;" parent="nQaSH5ZJLGZen89Ir8Ug-1" vertex="1">
          <mxGeometry x="280" y="300" width="120" height="60" as="geometry" />
        </mxCell>
        <mxCell id="nQaSH5ZJLGZen89Ir8Ug-35" value="" style="endArrow=none;html=1;rounded=0;" parent="nQaSH5ZJLGZen89Ir8Ug-1" edge="1">
          <mxGeometry width="50" height="50" relative="1" as="geometry">
            <mxPoint x="180" y="160" as="sourcePoint" />
            <mxPoint x="820" y="160" as="targetPoint" />
          </mxGeometry>
        </mxCell>
        <mxCell id="DQY4unRg5TGk52qzZA9S-3" style="edgeStyle=orthogonalEdgeStyle;rounded=0;orthogonalLoop=1;jettySize=auto;html=1;exitX=0.5;exitY=0;exitDx=0;exitDy=0;endArrow=none;endFill=0;" parent="nQaSH5ZJLGZen89Ir8Ug-1" source="nQaSH5ZJLGZen89Ir8Ug-38" edge="1">
          <mxGeometry relative="1" as="geometry">
            <mxPoint x="340" y="160" as="targetPoint" />
          </mxGeometry>
        </mxCell>
        <mxCell id="nQaSH5ZJLGZen89Ir8Ug-38" value="Repeat 4 times" style="ellipse;whiteSpace=wrap;html=1;" parent="nQaSH5ZJLGZen89Ir8Ug-1" vertex="1">
          <mxGeometry x="280" y="200" width="120" height="60" as="geometry" />
        </mxCell>
        <mxCell id="nQaSH5ZJLGZen89Ir8Ug-39" value="Add amount to cost" style="rounded=0;whiteSpace=wrap;html=1;" parent="nQaSH5ZJLGZen89Ir8Ug-1" vertex="1">
          <mxGeometry x="280" y="400" width="120" height="60" as="geometry" />
        </mxCell>
        <mxCell id="1Ul190k1DZZDLRFlQpAm-2" style="edgeStyle=orthogonalEdgeStyle;rounded=0;orthogonalLoop=1;jettySize=auto;html=1;exitX=0.5;exitY=0;exitDx=0;exitDy=0;endArrow=none;endFill=0;" parent="nQaSH5ZJLGZen89Ir8Ug-1" source="fUy0ndqq2JAWgpP197KR-8" edge="1">
          <mxGeometry relative="1" as="geometry">
            <mxPoint x="500" y="160" as="targetPoint" />
          </mxGeometry>
        </mxCell>
        <mxCell id="1Ul190k1DZZDLRFlQpAm-5" style="edgeStyle=orthogonalEdgeStyle;rounded=0;orthogonalLoop=1;jettySize=auto;html=1;exitX=0.5;exitY=1;exitDx=0;exitDy=0;entryX=0.5;entryY=0;entryDx=0;entryDy=0;endArrow=none;endFill=0;" parent="nQaSH5ZJLGZen89Ir8Ug-1" source="fUy0ndqq2JAWgpP197KR-8" target="1Ul190k1DZZDLRFlQpAm-3" edge="1">
          <mxGeometry relative="1" as="geometry" />
        </mxCell>
        <mxCell id="fUy0ndqq2JAWgpP197KR-8" value="Get valid tip percentage" style="rounded=0;whiteSpace=wrap;html=1;" parent="nQaSH5ZJLGZen89Ir8Ug-1" vertex="1">
          <mxGeometry x="440" y="200" width="120" height="60" as="geometry" />
        </mxCell>
        <mxCell id="fUy0ndqq2JAWgpP197KR-18" style="edgeStyle=orthogonalEdgeStyle;rounded=0;orthogonalLoop=1;jettySize=auto;html=1;exitX=0.5;exitY=0;exitDx=0;exitDy=0;endArrow=none;endFill=0;" parent="nQaSH5ZJLGZen89Ir8Ug-1" source="fUy0ndqq2JAWgpP197KR-17" edge="1">
          <mxGeometry relative="1" as="geometry">
            <mxPoint x="660" y="160" as="targetPoint" />
          </mxGeometry>
        </mxCell>
        <mxCell id="FMAfF1MgHCoDQNeF51pw-1" style="edgeStyle=orthogonalEdgeStyle;rounded=0;orthogonalLoop=1;jettySize=auto;html=1;exitX=0.5;exitY=1;exitDx=0;exitDy=0;entryX=0.5;entryY=0;entryDx=0;entryDy=0;endArrow=none;endFill=0;" parent="nQaSH5ZJLGZen89Ir8Ug-1" source="fUy0ndqq2JAWgpP197KR-17" edge="1">
          <mxGeometry relative="1" as="geometry">
            <mxPoint x="660" y="300" as="targetPoint" />
          </mxGeometry>
        </mxCell>
        <mxCell id="fUy0ndqq2JAWgpP197KR-17" value="Display cost" style="rounded=0;whiteSpace=wrap;html=1;" parent="nQaSH5ZJLGZen89Ir8Ug-1" vertex="1">
          <mxGeometry x="600" y="200" width="120" height="60" as="geometry" />
        </mxCell>
        <mxCell id="FMAfF1MgHCoDQNeF51pw-3" style="edgeStyle=orthogonalEdgeStyle;rounded=0;orthogonalLoop=1;jettySize=auto;html=1;exitX=0.5;exitY=1;exitDx=0;exitDy=0;entryX=0.5;entryY=0;entryDx=0;entryDy=0;endArrow=none;endFill=0;" parent="nQaSH5ZJLGZen89Ir8Ug-1" target="FMAfF1MgHCoDQNeF51pw-2" edge="1">
          <mxGeometry relative="1" as="geometry">
            <mxPoint x="660" y="360" as="sourcePoint" />
          </mxGeometry>
        </mxCell>
        <mxCell id="FMAfF1MgHCoDQNeF51pw-2" value="Display total" style="rounded=0;whiteSpace=wrap;html=1;" parent="nQaSH5ZJLGZen89Ir8Ug-1" vertex="1">
          <mxGeometry x="600" y="400" width="120" height="60" as="geometry" />
        </mxCell>
        <mxCell id="1Ul190k1DZZDLRFlQpAm-3" value="Calculate tip&lt;div&gt;(2 decimal places)&lt;/div&gt;" style="rounded=0;whiteSpace=wrap;html=1;" parent="nQaSH5ZJLGZen89Ir8Ug-1" vertex="1">
          <mxGeometry x="440" y="300" width="120" height="60" as="geometry" />
        </mxCell>
        <mxCell id="1Ul190k1DZZDLRFlQpAm-7" value="Display tip" style="rounded=0;whiteSpace=wrap;html=1;" parent="nQaSH5ZJLGZen89Ir8Ug-1" vertex="1">
          <mxGeometry x="600" y="300" width="120" height="60" as="geometry" />
        </mxCell>
        <mxCell id="1Ul190k1DZZDLRFlQpAm-9" style="edgeStyle=orthogonalEdgeStyle;rounded=0;orthogonalLoop=1;jettySize=auto;html=1;exitX=0.5;exitY=0;exitDx=0;exitDy=0;endArrow=none;endFill=0;" parent="nQaSH5ZJLGZen89Ir8Ug-1" source="1Ul190k1DZZDLRFlQpAm-8" edge="1">
          <mxGeometry relative="1" as="geometry">
            <mxPoint x="820" y="160" as="targetPoint" />
          </mxGeometry>
        </mxCell>
        <mxCell id="1Ul190k1DZZDLRFlQpAm-8" value="Calculate individual cost&lt;div&gt;(2 decimal places)&lt;/div&gt;" style="rounded=0;whiteSpace=wrap;html=1;" parent="nQaSH5ZJLGZen89Ir8Ug-1" vertex="1">
          <mxGeometry x="760" y="200" width="120" height="60" as="geometry" />
        </mxCell>
        <mxCell id="1Ul190k1DZZDLRFlQpAm-11" style="edgeStyle=orthogonalEdgeStyle;rounded=0;orthogonalLoop=1;jettySize=auto;html=1;exitX=0.5;exitY=0;exitDx=0;exitDy=0;entryX=0.5;entryY=1;entryDx=0;entryDy=0;endArrow=none;endFill=0;" parent="nQaSH5ZJLGZen89Ir8Ug-1" target="1Ul190k1DZZDLRFlQpAm-8" edge="1">
          <mxGeometry relative="1" as="geometry">
            <mxPoint x="820" y="300" as="sourcePoint" />
          </mxGeometry>
        </mxCell>
        <mxCell id="1Ul190k1DZZDLRFlQpAm-12" value="Display individual cost" style="rounded=0;whiteSpace=wrap;html=1;" parent="nQaSH5ZJLGZen89Ir8Ug-1" vertex="1">
          <mxGeometry x="760" y="300" width="120" height="60" as="geometry" />
        </mxCell>
      </root>
    </mxGraphModel>
  </diagram>
  <diagram id="DZfxQxoiEuQoA3vxxx5j" name="Example">
    <mxGraphModel dx="870" dy="697" grid="1" gridSize="10" guides="1" tooltips="1" connect="1" arrows="1" fold="1" page="1" pageScale="1" pageWidth="850" pageHeight="1100" math="0" shadow="0">
      <root>
        <mxCell id="0" />
        <mxCell id="1" parent="0" />
        <mxCell id="YGbuSc-yD24ZNoinjPzg-1" value="&lt;b&gt;Input&lt;/b&gt;&lt;br&gt;&lt;br&gt;Person 1: 15&lt;br&gt;Person 2: 7.50&lt;br&gt;Person 3: 9.75&lt;br&gt;Person 4: 12.30&lt;br&gt;&lt;br&gt;Tip percent: 10" style="text;html=1;strokeColor=none;fillColor=none;align=left;verticalAlign=top;whiteSpace=wrap;rounded=0;" parent="1" vertex="1">
          <mxGeometry x="80" y="80" width="90" height="130" as="geometry" />
        </mxCell>
        <mxCell id="PQvjtU43Chlj2779SlHy-1" value="&lt;b&gt;Output&lt;/b&gt;&lt;br&gt;&lt;br&gt;Cost: £44.55&lt;br&gt;Tip: £4.46&lt;br&gt;&lt;br&gt;Total:&amp;nbsp; £49.01&lt;br&gt;&lt;br&gt;Each pays: £12.25" style="text;html=1;strokeColor=none;fillColor=none;align=left;verticalAlign=top;whiteSpace=wrap;rounded=0;" parent="1" vertex="1">
          <mxGeometry x="200" y="80" width="110" height="130" as="geometry" />
        </mxCell>
      </root>
    </mxGraphModel>
  </diagram>
</mxfile>
